<?xml version="1.0" encoding="UTF-8"?>
<svg id="Layer_2" data-name="Layer 2" xmlns="http://www.w3.org/2000/svg" xmlns:xlink="http://www.w3.org/1999/xlink" viewBox="0 0 560.36 509.15">
  <defs>
    <style>
      .cls-1 {
        fill: none;
        stroke: #000;
        stroke-miterlimit: 10;
      }

      .cls-2 {
        fill: url(#linear-gradient-2);
      }

      .cls-2, .cls-3, .cls-4 {
        fill-rule: evenodd;
      }

      .cls-3 {
        fill: url(#linear-gradient);
      }

      .cls-5 {
        fill: #121619;
      }

      .cls-4 {
        fill: url(#linear-gradient-3);
      }
    </style>
    <linearGradient id="linear-gradient" x1="256.03" y1="53.96" x2="404.62" y2="394.24" gradientUnits="userSpaceOnUse">
      <stop offset="0" stop-color="#343a3f"/>
      <stop offset="1" stop-color="#343a3f" stop-opacity="0"/>
    </linearGradient>
    <linearGradient id="linear-gradient-2" x1="237.18" y1="62.19" x2="385.77" y2="402.47" xlink:href="#linear-gradient"/>
    <linearGradient id="linear-gradient-3" x1="274.1" y1="446.28" x2="397.25" y2="80.76" gradientTransform="translate(0 541.24) scale(1 -1)" xlink:href="#linear-gradient"/>
  </defs>
  <g id="Layer_1-2" data-name="Layer 1">
    <g>
      <g>
        <path class="cls-3" d="M365.98,169.06c-.84-12.82-13.51-14.56-15.27-14.76l-54.56,15.64-21.48,65.96,57.01-16.35c21.22-13.1,35.23-36.24,34.3-50.49Z"/>
        <path class="cls-2" d="M520.45,51.68c-.67-1.25-1.38-2.48-2.1-3.69h0c-.39-.66-.78-1.29-1.18-1.93-.01,0-.01-.01-.01-.01h-.01C489.65,2.4,432.86-12.51,360.01,12.9,240.43,54.61,122.86,189.18,97.4,313.47c-10.45,51.04-3.74,92.41,16.09,120.55h0v.02c1.7,2.42,3.5,4.74,5.41,6.96,3.58,4.21,7.5,8.06,11.76,11.54,.14,.11,.28,.23,.42,.34,.25,.19,.49,.39,.74,.58,26.11,20.67,63.97,27.52,109.67,17.15,1.3-.3,2.61-.6,3.92-.93,.84-.2,1.68-.42,2.52-.63,1.33-.35,2.66-.71,4-1.08,5.21-1.44,10.52-3.1,15.91-4.98,119.58-41.71,237.15-176.28,262.6-300.57,2.38-11.59,3.86-22.69,4.51-33.25-.01-.01-.01-.02,0-.03,.1-1.5,.17-2.98,.23-4.46,.08-1.69,.12-3.37,.14-5.03,.37-26.68-4.86-49.58-14.87-67.97ZM239.02,385.16c-10.35,2.97-20.39,4.55-29.88,4.5-11.77-.06-22.8-2.75-29.49-10.77-6.49-7.77-8.45-20.12-7.16-33.56,1.29-13.45,5.68-27.98,11.18-42.39,13.31-34.86,33.45-69.91,58.15-101.29,1.5-1.9,3.01-3.76,4.53-5.63,2.1-2.61,2.62-2.83,5.19-3.6-31.18,36.6-58.38,79.95-67.72,121.01-4.49,19.75-4.24,39.59,6.52,48.55,7.82,6.5,20.28,6.41,33.03,2.76,12.76-3.65,25.98-10.6,39.05-17.48-.91-7.61-1.81-15.24-2.72-22.85,20.68,4.49,41.38,8.98,62.06,13.46-26.53,22.28-55.66,39.53-82.74,47.29Zm187.55-174.71c-7.34,14.14-15.59,26.45-20.42,33.66-5.69,8.48-21.24,31.04-45.17,56.91-7.51,8.13-17.57,18.43-29.96,29.61l-35.74-69.21-33.13,9.51-22.86,66.02-31.67,9.08,68.64-200.63,95.5-27.38c4.65,.03,17.15,.9,23.96,12.55,.84,1.42,4.15,7.39,4.38,17.88,.53,23.58-14.97,48.33-18,53.02-19.83,30.83-46.49,43.96-50.98,46.09,5.58,10.36,11.16,20.72,16.74,31.08,7.17-7.33,16.24-17.35,25.71-29.95,31.93-42.55,72.24-119.75,51.18-145.36-7.91-9.6-23.37-10.63-42.32-5.2-13.61,3.9-29.02,11.14-44.72,20.94l-8.77,2.51,.93-.78c20.76-15.42,40.95-25.65,58.76-30.76,26.54-7.61,47.78-3.81,57.66,11.22,20.65,31.42-14.69,99.52-19.72,109.19Z"/>
      </g>
      <polygon class="cls-5" points="530.44 162.42 529.95 162.32 529.95 162.32 530.44 162.42"/>
      <polygon class="cls-5" points="0 208.42 .16 208.89 .16 208.89 0 208.42"/>
      <polygon class="cls-5" points="360.01 12.9 359.85 12.43 359.85 12.43 360.01 12.9"/>
      <rect class="cls-5" x="158.02" y="261.84" width=".5" height=".5" transform="translate(-143.24 208.85) rotate(-48.86)"/>
      <polygon class="cls-5" points="269.54 135.06 269.38 134.59 269.25 134.63 269.17 134.73 269.54 135.06"/>
      <polygon class="cls-5" points="279.69 368.2 279.36 368.58 279.74 368.91 280.07 368.53 279.69 368.2"/>
      <polygon class="cls-5" points="466.2 154.78 466.58 155.11 466.91 154.73 466.53 154.4 466.2 154.78"/>
      <polygon class="cls-5" points="394.24 91.57 394.57 91.19 394.35 91 394.07 91.09 394.24 91.57"/>
      <polygon class="cls-5" points="390.16 149.15 389.83 149.52 389.83 149.52 390.16 149.15"/>
      <polygon class="cls-5" points="248.84 198.44 249.22 198.77 249.22 198.77 248.84 198.44"/>
      <polygon class="cls-5" points="416.34 172.11 416.71 172.44 417.04 172.06 416.67 171.73 416.34 172.11"/>
      <polygon class="cls-5" points="376.01 218.27 375.63 217.94 375.63 217.94 376.01 218.27"/>
      <polygon class="cls-5" points="234.69 267.57 235.02 267.19 235.02 267.19 234.69 267.57"/>
      <rect class="cls-5" x="207.91" y="244.38" width=".5" height=".5" transform="translate(-113.02 240.62) rotate(-48.89)"/>
      <polygon class="cls-5" points="302.25 258.04 302.42 258.51 302.42 258.51 302.25 258.04"/>
      <polygon class="cls-5" points="264.63 225.03 265.12 225.13 265.12 225.13 264.63 225.03"/>
      <polygon class="cls-5" points="322.6 158.68 322.77 159.15 322.77 159.15 322.6 158.68"/>
      <polygon class="cls-5" points="308 229.96 307.84 229.49 307.84 229.49 308 229.96"/>
      <polygon class="cls-5" points="316.85 186.76 317.02 187.23 317.02 187.23 316.85 186.76"/>
      <polygon class="cls-5" points="333.21 201.11 332.72 201.01 332.72 201.01 333.21 201.11"/>
      <path class="cls-5" d="M529.95,162.32c-12.7,62.04-48.41,126.68-95.89,181.03-47.48,54.35-106.7,98.36-166.39,119.18l.33,.94c59.89-20.89,119.25-65.02,166.81-119.46,47.56-54.44,83.37-119.23,96.12-181.48l-.98-.2Z"/>
      <path class="cls-5" d="M360.18,13.37c59.69-20.82,108.45-14.48,139.11,12.41,30.66,26.9,43.37,74.49,30.67,136.53l.98,.2c12.75-62.25,.04-110.27-30.99-137.49-31.03-27.22-80.21-33.5-140.1-12.61l.33,.94Z"/>
      <path class="cls-5" d="M97.9,313.57c12.71-62.04,48.41-126.68,95.89-181.03,47.48-54.35,106.7-98.36,166.39-119.18l-.33-.94c-59.89,20.89-119.25,65.02-166.81,119.46-47.56,54.44-83.37,119.23-96.12,181.48l.98,.2Z"/>
      <path class="cls-5" d="M267.67,462.52c-59.69,20.82-108.45,14.48-139.11-12.41-30.66-26.9-43.37-74.49-30.67-136.54l-.98-.2c-12.75,62.24-.04,110.27,30.99,137.49,31.03,27.22,80.21,33.5,140.1,12.61l-.33-.94Z"/>
      <path class="cls-4" d="M529.96,162.03c-25.45,124.29-143.03,258.86-262.61,300.57-70.18,24.48-125.46,11.54-154.01-28.47,15.55,23.59,47.57,50.03,68.02,60.81,29.85,15.73,68.32,18.99,110.99,4.11,119.58-41.71,237.15-176.28,262.61-300.57,9.18-44.83,5.12-82.2-9.43-109.7-6.62-12.51-19.39-30.34-28.54-42.61,17.39,27.97,22.85,67.59,12.96,115.86Z"/>
      <path class="cls-5" d="M118.9,441c-1.91-2.22-3.71-4.54-5.41-6.96h0v-.02l-.41,.29,.17-.11,.1-.07c.59,.82,1.18,1.63,1.79,2.43,.41,.54,.83,1.07,1.25,1.6,.2,.26,.41,.51,.61,.76,.45,.55,.9,1.09,1.36,1.63,.51,.6,1.02,1.2,1.55,1.78,.05,.07,.11,.13,.17,.19-.39-.5-.8-1.01-1.18-1.52ZM517.15,46.04l-.42,.28h0s.01,.03,.01,.03c0,0,.01-.01,.01,0l.22-.16,.03-.02,.02-.02,.14-.1,.24-.18-.25,.17Zm12.86,116h-.05s-.49-.11-.49-.11c-12.71,62.04-48.41,126.68-95.89,181.02-47.49,54.35-106.7,98.36-166.39,119.18l.16,.47v.02s.01,.01,.01,.01l.16,.44c.1-.03,.2-.07,.3-.11,59.79-20.93,119.02-65,166.51-119.35,47.49-54.36,83.26-119.04,96.06-181.2,.02-.09,.04-.19,.06-.28l-.44-.09ZM267.36,462.63h0s-.01-.03-.01-.03l-.16-.47c-57.13,19.93-104.24,14.98-135.07-9.07-.16-.13-.33-.26-.49-.39-.06-.04-.11-.09-.17-.13-.42-.34-.83-.67-1.25-1.02-.56-.46-1.11-.92-1.65-1.41-5.52-4.76-10.47-10.19-14.8-16.25,0,0-.01,0-.01-.02l-.26,.18h0s-.14,.11-.14,.11l-.1,.07-.17,.12-.14,.1c2.15,3.02,4.46,5.88,6.91,8.59,.02,.02,.04,.04,.05,.06,1.47,1.61,2.98,3.17,4.55,4.67,1.68,1.61,3.41,3.15,5.21,4.62,.34,.29,.69,.58,1.04,.85,.02,.01,.03,.03,.05,.04,26.34,21.01,64.61,27.92,110.74,17.36,1.3-.3,2.61-.6,3.92-.93,.84-.2,1.68-.42,2.52-.63,1.33-.35,2.66-.71,4-1.08,5.11-1.43,10.31-3.06,15.59-4.9l-.16-.44Zm-121.51,6.33c-7.64-6.66-15.03-13.91-21.4-21.22-.14-.16-.28-.32-.43-.49h0s-.01-.02-.01-.02c-1.34-1.55-2.62-3.09-3.87-4.65-.02-.02-.03-.04-.05-.06-.39-.5-.8-1.01-1.18-1.52-1.86-2.39-3.59-4.78-5.14-7.14l-.27,.18-.14,.09-.1,.07-.17,.11-.15,.1s0,0,.01,0c7.81,11.84,19.73,24.37,32.25,35.3,12.52,10.92,25.67,20.25,35.94,25.67l.23-.44h.01l.23-.45c-10.18-5.37-23.27-14.65-35.75-25.54Zm146.51,30.09l-.17-.47c-42.55,14.84-80.88,11.59-110.59-4.08l-.23,.45h-.01l-.23,.44c29.99,15.81,68.61,19.06,111.39,4.13l-.16-.47ZM554.96,198.48l-.48-.1c-12.71,62.04-48.42,126.68-95.9,181.02-47.48,54.35-106.7,98.36-166.39,119.18l.17,.47,.16,.47c59.89-20.89,119.25-65.02,166.82-119.46,47.56-54.44,83.37-119.23,96.11-181.48l-.49-.1ZM131.82,453.46c-.25-.19-.49-.39-.74-.58-.14-.11-.28-.23-.42-.34-1.15-.93-2.28-1.89-3.39-2.88-.35-.3-.69-.61-1.03-.93-.05-.04-.11-.09-.16-.15-.33-.3-.66-.61-.99-.92-1.08-1.02-2.14-2.08-3.17-3.16-.3-.31-.6-.63-.9-.95-.3-.32-.6-.64-.89-.97,1.25,1.56,2.53,3.1,3.87,4.65h.01v.02c.16,.17,.3,.33,.44,.49,1.68,1.61,3.41,3.15,5.21,4.62,.34,.29,.69,.58,1.04,.85,.02,.01,.03,.03,.05,.04,26.34,21.01,64.61,27.92,110.74,17.36-45.7,10.37-83.56,3.52-109.67-17.15ZM521.53,53.16s-.01-.01-.01-.02c-.36-.49-.72-.98-1.07-1.46-.34-.45-.67-.91-1-1.35-.01-.01-.02-.01-.02-.02,.31,.56,.62,1.13,.92,1.69,.61,1.14,1.2,2.3,1.77,3.47,.86,1.76,1.68,3.56,2.45,5.39,.26,.61,.51,1.23,.76,1.85,.25,.61,.49,1.24,.73,1.87,.48,1.25,.94,2.52,1.38,3.8,0,.01,0,.02,.01,.03,.21,.63,.42,1.26,.63,1.89,0,.02,.01,.04,.02,.06,.62,1.95,1.21,3.93,1.75,5.96,.37,1.35,.72,2.72,1.04,4.1,.32,1.38,.63,2.77,.92,4.18,.28,1.42,.55,2.86,.79,4.32,.13,.72,.24,1.45,.36,2.18,.11,.73,.22,1.46,.32,2.2,.1,.7,.19,1.41,.29,2.12,0,.05,0,.1,.02,.16,.08,.73,.17,1.46,.25,2.2,.08,.75,.16,1.51,.23,2.27,.06,.62,.12,1.24,.17,1.86,.08,.92,.15,1.86,.21,2.8,.26,3.87,.39,7.82,.39,11.87,0,1.01,0,2.03-.02,3.06,0,.82-.02,1.64-.05,2.47v.03c-.02,.83-.05,1.67-.09,2.51-.03,.74-.06,1.48-.1,2.22,0,.17-.02,.34-.03,.51-.02,.4-.04,.8-.06,1.21-.14,2.41-.33,4.84-.56,7.31-.07,.76-.15,1.52-.23,2.29-.09,.9-.19,1.8-.3,2.7-.07,.65-.15,1.3-.23,1.95-.22,1.78-.46,3.58-.73,5.4-.11,.72-.22,1.44-.33,2.17-.17,1.1-.36,2.21-.54,3.32-.15,.86-.3,1.72-.46,2.59-.34,1.89-.71,3.8-1.1,5.72-.02,.09-.04,.19-.06,.28-12.7,62.04-48.41,126.68-95.89,181.02-47.48,54.35-106.7,98.36-166.39,119.18-.1,.04-.21,.07-.31,.1h0s.16,.45,.16,.45c.1-.03,.2-.07,.3-.11,59.79-20.93,119.02-65,166.51-119.35,47.49-54.36,83.26-119.04,96.06-181.2,.02-.09,.04-.19,.06-.28,2.35-11.49,3.83-22.48,4.5-32.96-.01,0-.01-.02,0-.03,.09-1.5,.17-2.98,.23-4.46,.08-1.69,.12-3.37,.14-5.03,.42-25.9-4.43-48.29-13.79-66.49Zm24.45,35.38l-.44,.24-.44,.23c14.48,27.37,18.54,64.61,9.38,109.37l.48,.1,.49,.1c9.2-44.91,5.15-82.4-9.47-110.04Zm-24.46-35.4c-.36-.49-.72-.98-1.07-1.46-.34-.45-.67-.91-1-1.35,.31,.55,.61,1.11,.9,1.67,.62,1.14,1.21,2.29,1.77,3.47,.86,1.76,1.68,3.56,2.45,5.39,.26,.61,.52,1.23,.76,1.85,.25,.61,.49,1.24,.73,1.87,.48,1.25,.94,2.51,1.38,3.8,0,.01,0,.02,.01,.03,.21,.62,.42,1.25,.63,1.89,0,.02,.01,.04,.02,.06,.63,1.95,1.22,3.94,1.75,5.96,.37,1.35,.72,2.72,1.04,4.1,.33,1.38,.63,2.77,.92,4.18,.28,1.42,.55,2.86,.79,4.32,.13,.72,.25,1.45,.36,2.18,.12,.73,.23,1.46,.32,2.2,.11,.7,.2,1.41,.29,2.12,0,.05,0,.1,.02,.16,.09,.73,.18,1.46,.25,2.2,.09,.75,.17,1.51,.23,2.27,.07,.61,.13,1.23,.17,1.86,.08,.92,.15,1.86,.21,2.8,.34,4.83,.46,9.81,.37,14.93,0,.82-.02,1.64-.05,2.47v.03c-.02,.83-.05,1.67-.09,2.51-.02,.74-.06,1.48-.1,2.22-.02,.57-.05,1.14-.09,1.72-.14,2.41-.33,4.84-.56,7.31-.07,.76-.14,1.52-.23,2.29-.09,.9-.19,1.8-.3,2.7-.07,.65-.14,1.3-.23,1.95-.22,1.78-.46,3.58-.73,5.4-.11,.72-.22,1.44-.33,2.17-.17,1.1-.36,2.21-.54,3.32-.15,.86-.3,1.72-.46,2.59-.34,1.89-.71,3.8-1.1,5.72-.02,.09-.04,.19-.06,.28-12.7,62.04-48.41,126.68-95.89,181.02-47.48,54.35-106.7,98.36-166.39,119.18-.1,.04-.21,.07-.31,.1h0s.16,.45,.16,.45c.1-.03,.2-.07,.3-.11,59.79-20.93,119.02-65,166.51-119.35,47.49-54.36,83.26-119.04,96.06-181.2,.02-.09,.04-.19,.06-.28,2.35-11.49,3.83-22.48,4.5-32.96-.01,0-.01-.02,0-.03,.09-1.5,.17-2.98,.23-4.46,.08-1.69,.12-3.37,.14-5.03,.42-25.9-4.43-48.29-13.79-66.49,0,0-.01-.01-.01-.02ZM131.82,453.46c-.25-.19-.49-.39-.74-.58-.14-.11-.28-.23-.42-.34-1.15-.93-2.28-1.89-3.39-2.88-.35-.3-.69-.61-1.03-.93-.05-.04-.11-.09-.16-.15-.33-.3-.66-.61-.99-.92-1.08-1.02-2.14-2.08-3.17-3.16-.3-.31-.6-.63-.9-.95-.3-.32-.6-.64-.89-.97,1.25,1.56,2.53,3.1,3.87,4.65h.01v.02c.16,.17,.3,.33,.44,.49,1.68,1.61,3.41,3.15,5.21,4.62,.34,.29,.69,.58,1.04,.85,.02,.01,.03,.03,.05,.04,26.34,21.01,64.61,27.92,110.74,17.36-45.7,10.37-83.56,3.52-109.67-17.15ZM518.7,47.62c-.44-.6-.88-1.18-1.3-1.75l-.24,.18-.14,.1-.02,.02-.03,.02-.22,.16s-.01,0-.01,0l-.15,.12s.02,.02,.02,.03c.42,.56,.84,1.11,1.27,1.69h0c.51,.7,1.03,1.4,1.55,2.12,0,.01,.01,.01,.02,.02,.33,.44,.66,.9,1,1.35,.35,.48,.71,.97,1.07,1.46,0,.01,.01,.02,.01,.02,.3,.41,.6,.81,.9,1.23h0c8.17,11.25,17.38,24.64,22.67,34.62l.44-.23,.44-.24c-6.33-11.97-18.25-28.75-27.28-40.92Zm2.83,5.54s-.01-.01-.01-.02c-.56-1.07-1.13-2.14-1.72-3.18-.01-.01-.01-.03-.02-.04-.76-1.37-1.55-2.7-2.36-4.01l-.25,.15-.15,.09-.02,.02-.03,.02-.24,.14-.16,.1s.02,.03,.02,.04c.01,0,.02,.02,.02,.03,17.27,27.83,22.72,67.28,12.86,115.43l.49,.1h.05s.44,.1,.44,.1c2.35-11.49,3.83-22.48,4.5-32.96-.01,0-.01-.02,0-.03,.09-1.5,.17-2.98,.23-4.46,.08-1.69,.12-3.37,.14-5.03,.42-25.9-4.43-48.29-13.79-66.49Z"/>
      <g>
        <path class="cls-1" d="M251.55,192.43c-31.18,36.6-58.38,79.95-67.72,121.01-4.49,19.75-4.24,39.59,6.52,48.54,7.82,6.51,20.27,6.41,33.03,2.77,12.76-3.65,25.98-10.6,39.05-17.48-.91-7.61-1.81-15.24-2.73-22.85,20.69,4.49,41.38,8.98,62.07,13.47-26.53,22.28-55.67,39.52-82.75,47.29-10.35,2.97-20.39,4.55-29.88,4.5-11.77-.06-22.8-2.75-29.49-10.77-6.49-7.77-8.45-20.13-7.16-33.56,1.3-13.45,5.68-27.98,11.19-42.39,13.31-34.86,33.45-69.9,58.15-101.29,1.49-1.9,3-3.77,4.52-5.64,2.11-2.61,2.63-2.83,5.2-3.59Z"/>
        <path class="cls-1" d="M446.29,101.26c20.65,31.42-14.69,99.52-19.72,109.19-7.34,14.14-15.59,26.45-20.43,33.66-5.68,8.49-21.23,31.04-45.16,56.91-7.51,8.13-17.58,18.44-29.96,29.61l-35.74-69.21-33.13,9.5-22.86,66.02-31.67,9.08,68.64-200.62,95.5-27.38c4.66,.03,17.16,.9,23.97,12.55,.83,1.42,4.14,7.39,4.38,17.88,.53,23.58-14.97,48.33-18,53.02-19.83,30.83-46.5,43.96-50.98,46.09,5.59,10.36,11.16,20.72,16.74,31.08,7.17-7.33,16.24-17.35,25.71-29.96,31.93-42.54,72.24-119.74,51.18-145.35-7.9-9.6-23.37-10.64-42.32-5.2-13.61,3.9-29.02,11.14-44.72,20.94l-8.77,2.51,.93-.78c20.77-15.42,40.96-25.65,58.76-30.76,26.54-7.61,47.78-3.82,57.66,11.22Zm-171.62,134.64l57.01-16.35c21.22-13.1,35.23-36.24,34.3-50.49-.84-12.82-13.5-14.56-15.27-14.76l-54.56,15.64-21.48,65.95"/>
      </g>
    </g>
  </g>
</svg>